<?xml version="1.0" standalone="no"?>
<!DOCTYPE svg PUBLIC "-//W3C//DTD SVG 20010904//EN"
 "http://www.w3.org/TR/2001/REC-SVG-20010904/DTD/svg10.dtd">
<svg version="1.0" xmlns="http://www.w3.org/2000/svg"
 width="800.000000pt" height="800.000000pt" viewBox="0 0 800.000000 800.000000"
 preserveAspectRatio="xMidYMid meet">

<g transform="translate(0.000000,800.000000) scale(0.100000,-0.100000)"
fill="#FFFFFF" stroke="none">
<path d="M1529 6991 c-44 -45 -39 -74 40 -219 332 -613 541 -1228 602 -1772
15 -137 6 -593 -15 -760 -81 -628 -313 -1198 -628 -1547 -26 -29 -50 -64 -54
-78 -8 -31 12 -81 40 -100 40 -29 81 -18 189 47 179 108 441 227 678 309 183
63 446 121 654 145 174 20 620 14 785 -10 394 -59 710 -138 1006 -252 78 -30
149 -54 158 -54 32 0 73 29 86 60 17 40 -4 175 -60 400 -186 740 -622 1551
-1194 2220 -424 495 -969 954 -1546 1301 -306 185 -617 339 -682 339 -19 0
-40 -10 -59 -29z m435 -358 c1313 -720 2339 -1923 2783 -3261 54 -164 113
-406 99 -410 -6 -1 -38 7 -71 18 -295 103 -637 182 -965 222 -234 29 -641 31
-835 4 -366 -50 -605 -119 -1044 -304 -10 -4 -8 5 7 29 34 55 136 266 176 362
198 481 303 1172 255 1687 -22 246 -94 581 -184 860 -69 212 -221 583 -321
782 -35 70 -38 78 -28 78 4 0 61 -30 128 -67z"/>
<path d="M3408 6294 c-33 -18 -48 -43 -48 -83 0 -48 9 -60 89 -114 253 -170
625 -514 815 -752 414 -520 860 -1427 1116 -2270 62 -204 56 -191 96 -210 31
-14 41 -14 115 0 45 8 125 18 178 21 118 7 213 -16 425 -100 146 -59 182 -66
221 -40 45 30 49 66 14 168 -111 323 -343 824 -547 1181 -287 503 -531 814
-1000 1274 -521 511 -998 843 -1327 922 -95 22 -111 23 -147 3z m1052 -798
c252 -218 709 -695 871 -911 207 -273 425 -639 608 -1016 88 -181 225 -496
237 -543 l6 -24 -109 36 c-104 35 -114 36 -253 36 -80 1 -165 -1 -189 -4 l-43
-4 -43 134 c-135 430 -285 800 -500 1235 -242 489 -481 866 -721 1141 -46 53
-84 98 -84 101 0 6 75 -55 220 -181z"/>
<path d="M7000 2612 c-42 -2 -443 -28 -1355 -87 -209 -14 -456 -29 -550 -35
-93 -6 -303 -19 -465 -30 -398 -26 -1037 -67 -1245 -80 -93 -6 -264 -17 -380
-25 -115 -8 -286 -19 -380 -25 -189 -11 -978 -62 -1322 -85 -246 -16 -264 -21
-283 -81 -13 -39 -5 -58 124 -301 l65 -123 -160 -107 c-306 -207 -372 -243
-437 -243 -13 0 -37 -13 -53 -29 -41 -41 -40 -91 2 -133 29 -29 33 -30 95 -25
93 7 190 57 447 231 231 156 322 206 375 206 54 0 81 -17 282 -176 266 -211
392 -269 585 -269 179 0 275 42 520 226 169 126 230 159 314 166 118 11 191
-23 378 -178 200 -165 321 -220 488 -221 163 -1 289 57 485 223 176 148 256
185 391 177 100 -6 161 -35 292 -142 170 -138 209 -166 292 -206 99 -48 180
-64 287 -58 152 9 252 56 448 213 218 174 251 190 390 190 87 0 101 -3 161
-32 38 -19 114 -74 176 -127 61 -52 133 -111 159 -132 112 -86 294 -143 363
-114 36 15 61 55 61 98 0 41 -58 92 -104 92 -83 0 -160 40 -286 150 -226 196
-329 252 -496 266 -145 13 -308 -48 -463 -173 -151 -123 -250 -191 -308 -213
-101 -38 -256 -25 -336 28 l-27 19 115 56 c260 127 661 357 865 495 154 105
541 394 592 443 32 30 38 43 38 76 0 71 -44 101 -140 95z m-281 -219 c-1 -19
-417 -305 -589 -405 -251 -146 -603 -330 -722 -377 l-56 -23 -69 53 c-184 141
-385 181 -573 113 -98 -35 -151 -69 -310 -198 -76 -62 -163 -123 -200 -140
-58 -27 -75 -31 -155 -31 -128 0 -195 33 -370 180 -253 212 -422 264 -630 193
-81 -27 -152 -72 -320 -198 -78 -58 -170 -119 -205 -135 -60 -28 -74 -30 -175
-30 -106 0 -113 1 -187 37 -96 46 -142 76 -288 193 -230 185 -307 222 -426
210 l-60 -6 -57 107 c-32 59 -56 108 -55 109 4 3 270 21 728 50 217 14 496 32
620 40 213 14 513 34 1630 105 261 17 680 44 930 60 250 16 669 43 930 60 427
27 508 32 588 38 12 1 22 -1 21 -5z"/>
</g>
</svg>
